<svg xmlns="http://www.w3.org/2000/svg" width="1em" height="1em" viewBox="0 0 32 32" class="Gallery-module__ctaIcon___a-C0y Icon-module__icon___5Kqln"><path d="M16 0c8.837 0 16 7.163 16 16s-7.163 16-16 16S0 24.837 0 16 7.163 0 16 0zm0 2C8.268 2 2 8.268 2 16s6.268 14 14 14 14-6.268 14-14S23.732 2 16 2zm0 10.875c.58 0 1.057.439 1.118 1.002l.007.123v9a1.125 1.125 0 01-2.243.123L14.875 23v-9c0-.621.504-1.125 1.125-1.125zm0-5a1.625 1.625 0 110 3.25 1.625 1.625 0 010-3.25z" fill-rule="evenodd"></path></svg>