<svg xmlns="http://www.w3.org/2000/svg" width="1em" height="1em" viewBox="0 0 32 32" class="Gallery-module__lockIcon___0thAu Icon-module__icon___5Kqln"><path d="M28 16v12c0 .552-.104 1.068-.313 1.547a4.26 4.26 0 01-.859 1.281 3.739 3.739 0 01-1.265.86c-.48.197-1 .302-1.563.312H8a3.837 3.837 0 01-1.547-.313 4.26 4.26 0 01-1.281-.859 3.739 3.739 0 01-.86-1.265c-.197-.48-.302-1-.312-1.563V16c0-.552.104-1.068.313-1.547a4.26 4.26 0 01.859-1.281 3.739 3.739 0 011.266-.86c.479-.197 1-.302 1.562-.312V8c0-1.104.208-2.14.625-3.11a8.214 8.214 0 011.703-2.546A7.85 7.85 0 0112.875.625 7.897 7.897 0 0116 0c1.104 0 2.14.208 3.11.625a8.214 8.214 0 012.546 1.703 7.85 7.85 0 011.719 2.547c.417.98.625 2.02.625 3.125v4c.552 0 1.068.104 1.547.313.479.208.906.494 1.281.859.375.364.662.786.86 1.265.197.48.302 1 .312 1.563zm-18-4h12V8c0-.833-.156-1.615-.469-2.344A6.02 6.02 0 0020.25 3.75a6.02 6.02 0 00-1.906-1.281A5.886 5.886 0 0016 2c-.833 0-1.615.156-2.344.469A6.02 6.02 0 0011.75 3.75a6.02 6.02 0 00-1.281 1.906A5.886 5.886 0 0010 8v4zm16 4a1.9 1.9 0 00-.156-.766 2.207 2.207 0 00-.422-.64 1.845 1.845 0 00-.64-.438A2.012 2.012 0 0024 14H8c-.281 0-.542.052-.781.156-.24.104-.448.245-.625.422a2.18 2.18 0 00-.438.64c-.114.25-.166.511-.156.782v12c0 .281.052.542.156.781.104.24.245.453.422.64.177.188.386.329.625.423.24.093.505.146.797.156h16c.281 0 .542-.052.781-.156.24-.104.448-.245.625-.422a2.18 2.18 0 00.438-.64c.114-.25.166-.511.156-.782V16zm-8 6c0 .281-.052.542-.156.781-.104.24-.245.448-.422.625a2.18 2.18 0 01-.64.438c-.25.114-.511.166-.782.156-.281 0-.542-.052-.781-.156a2.207 2.207 0 01-.64-.422 1.703 1.703 0 01-.423-.625A2.41 2.41 0 0114 22c0-.281.052-.542.156-.781.104-.24.245-.448.422-.625a2.18 2.18 0 01.64-.438c.25-.114.511-.166.782-.156.27 0 .526.052.766.156.24.104.453.245.64.422.188.177.334.39.438.64.104.25.156.511.156.782z" fill-rule="nonzero"></path></svg>
