<svg xmlns="http://www.w3.org/2000/svg" width="1em" height="1em" viewBox="0 0 32 32" class="Button-module__buttonIcon___six7+ Button-module__marginLeft___J8KhA Icon-module__icon___5Kqln Icon-module__xxSmall___cJcD7" aria-hidden="true"><path d="M12.921 2.001l.117.007a1 1 0 010 1.986l-.117.007H7l-.176.005a3 3 0 00-2.819 2.819L4 7v18l.005.176a3 3 0 002.819 2.819l.176.005h18l.176-.005a3 3 0 002.819-2.819l.005-.176v-6l.007-.116a1 1 0 011.986 0L30 19v6l-.005.217a5 5 0 01-4.772 4.778l-.223.005H7l-.217-.004a5 5 0 01-4.778-4.773L2 25.001v-18l.005-.217a5 5 0 014.772-4.778L7 2.001h5.921zm16.079 0c.27 0 .505.1.703.297a.961.961 0 01.297.703v10c0 .27-.099.505-.297.703a.961.961 0 01-.703.297.961.961 0 01-.703-.297.961.961 0 01-.297-.703V5.407L17.703 15.704a.929.929 0 01-.703.297.929.929 0 01-.703-.297c-.198-.218-.297-.453-.297-.703 0-.27.099-.505.297-.703L26.594 4.001H19a.961.961 0 01-.703-.297.961.961 0 01-.297-.703c0-.27.099-.505.297-.703A.961.961 0 0119 2.001h10z" fill-rule="evenodd"></path></svg>